<svg width="33" height="33" viewBox="0 0 33 33" fill="none" xmlns="http://www.w3.org/2000/svg">
<path d="M4.7 3.525C4.05375 3.525 3.525 4.05375 3.525 4.7V28.2C3.525 28.8462 4.05375 29.375 4.7 29.375H28.2C28.8462 29.375 29.375 28.8462 29.375 28.2V4.7C29.375 4.05375 28.8462 3.525 28.2 3.525H4.7ZM0 4.7C0 2.10766 2.10766 0 4.7 0H28.2C30.7923 0 32.9 2.10766 32.9 4.7V28.2C32.9 30.7923 30.7923 32.9 28.2 32.9H4.7C2.10766 32.9 0 30.7923 0 28.2V4.7ZM13.5125 22.325H15.275V17.625H13.5125C12.5358 17.625 11.75 16.8392 11.75 15.8625C11.75 14.8858 12.5358 14.1 13.5125 14.1H17.0375C18.0142 14.1 18.8 14.8858 18.8 15.8625V22.325H19.3875C20.3642 22.325 21.15 23.1108 21.15 24.0875C21.15 25.0642 20.3642 25.85 19.3875 25.85H13.5125C12.5358 25.85 11.75 25.0642 11.75 24.0875C11.75 23.1108 12.5358 22.325 13.5125 22.325ZM16.45 7.05C17.7498 7.05 18.8 8.10016 18.8 9.4C18.8 10.6998 17.7498 11.75 16.45 11.75C15.1502 11.75 14.1 10.6998 14.1 9.4C14.1 8.10016 15.1502 7.05 16.45 7.05Z" fill="#FFA300"/>
</svg>
